<svg width="1196" height="400" viewBox="0 0 1196 547" fill="none" xmlns="http://www.w3.org/2000/svg">
<g clip-path="url(#clip0_257_2)">
<path d="M993.706 496.434H204.813V20.4222C204.813 9.167 214.584 0 226.609 0H971.91C983.922 0 993.706 9.1552 993.706 20.4222V496.434Z" fill="#2F2E41"/>
<path d="M1059.37 547H137.184C133.998 547 131.392 545.148 130.523 542.269C129.667 539.402 130.863 536.535 133.583 534.99L205.468 493.897H993.97L994.197 494.027L1063.1 535.049C1065.75 536.63 1066.91 539.485 1066.03 542.328C1065.15 545.159 1062.54 547 1059.4 547H1059.37Z" fill="#DFDFDF"/>
<path d="M972.111 30.3443H225.5V465.252H972.111V30.3443Z" fill="white"/>
<path d="M1000.9 520.879H200.318L239.893 490.795H963.121L1000.9 520.879Z" fill="#2F2E41"/>
<path d="M788.616 541.101H409.009L423.401 520.879H774.224L788.616 541.101Z" fill="#2F2E41"/>
<path d="M822.575 202.323H783.025C779.588 202.323 776.792 199.704 776.792 196.483C776.792 193.262 779.588 190.643 783.025 190.643H822.575C826.013 190.643 828.808 193.262 828.808 196.483C828.808 199.704 826.013 202.323 822.575 202.323Z" fill="#DFDFDF"/>
<path d="M868.055 202.323H849.596C846.159 202.323 843.364 199.704 843.364 196.483C843.364 193.262 846.159 190.643 849.596 190.643H868.055C871.493 190.643 874.288 193.262 874.288 196.483C874.288 199.704 871.493 202.323 868.055 202.323Z" fill="#DFDFDF"/>
<path d="M426.599 206.783H306.224C300.08 206.783 295.081 202.099 295.081 196.341C295.081 190.584 300.08 185.9 306.224 185.9H426.599C432.743 185.9 437.742 190.584 437.742 196.341C437.742 202.099 432.743 206.783 426.599 206.783Z" fill="#6C63FF"/>
<path d="M361.337 234.638H303.328C299.589 234.638 296.529 231.782 296.529 228.267C296.529 224.751 299.576 221.896 303.328 221.896H361.337C365.077 221.896 368.136 224.751 368.136 228.267C368.136 231.782 365.089 234.638 361.337 234.638Z" fill="#DFDFDF"/>
<path d="M681.135 259.779H301.868C298.128 259.779 295.068 256.924 295.068 253.408C295.068 249.892 298.116 247.037 301.868 247.037H681.135C684.875 247.037 687.935 249.892 687.935 253.408C687.935 256.924 684.887 259.779 681.135 259.779Z" fill="#DFDFDF"/>
<path d="M648.511 276.768H301.868C298.128 276.768 295.068 273.913 295.068 270.397C295.068 266.881 298.116 264.026 301.868 264.026H648.498C652.238 264.026 655.298 266.881 655.298 270.397C655.298 273.913 652.25 276.768 648.498 276.768H648.511Z" fill="#DFDFDF"/>
<g clip-path="url(#clip1_257_2)">
<path d="M893.818 467.783L895.002 469.174C908.679 485.42 916.663 500.342 918.822 513.742C918.857 513.937 918.879 514.13 918.913 514.325L917.998 514.465L917.116 514.589C914.945 499.986 905.526 484.649 893.6 470.476C893.22 470.015 892.834 469.548 892.435 469.092C887.333 463.136 881.825 457.402 876.241 452.026C875.812 451.606 875.371 451.185 874.929 450.765C867.522 443.706 860.046 437.294 853.368 431.877C852.898 431.492 852.421 431.113 851.95 430.741C840.609 421.618 831.776 415.526 829.807 414.19C829.57 414.022 829.435 413.934 829.405 413.913L829.907 413.175L829.908 413.162L830.417 412.419C830.448 412.44 830.9 412.734 831.716 413.302C834.78 415.409 843.013 421.2 853.221 429.384C853.68 429.755 854.157 430.134 854.627 430.519C860.051 434.91 865.975 439.931 871.944 445.41C873.445 446.783 874.909 448.154 876.333 449.521C876.781 449.936 877.223 450.357 877.651 450.777C883.688 456.588 889.077 462.256 893.818 467.783Z" fill="white"/>
<path d="M876.333 449.521C875.877 449.949 875.409 450.364 874.929 450.765C874.789 450.893 874.636 451.021 874.49 451.143C868.443 456.195 861.253 459.724 853.533 461.427C845.813 463.131 837.791 462.959 830.153 460.926C830.221 461.565 830.288 462.204 830.369 462.843C838.203 464.812 846.398 464.903 854.275 463.108C862.151 461.313 869.483 457.684 875.662 452.521C875.857 452.358 876.052 452.196 876.241 452.026C876.721 451.613 877.189 451.198 877.651 450.777C884.753 444.199 889.793 435.733 892.168 426.391C891.6 426.171 891.032 425.95 890.456 425.735C888.184 434.857 883.276 443.123 876.333 449.521Z" fill="white"/>
<path d="M893.818 467.783C893.367 468.231 892.904 468.665 892.435 469.092C891.931 469.548 891.421 469.998 890.9 470.433C882.766 477.213 872.636 481.199 862.025 481.795C851.414 482.392 840.894 479.565 832.039 473.74C832.201 474.56 832.357 475.372 832.533 476.18C841.661 481.746 852.327 484.319 863.015 483.535C873.703 482.751 883.871 478.649 892.072 471.811C892.593 471.376 893.109 470.933 893.6 470.476C894.082 470.05 894.545 469.616 895.002 469.174C904.183 460.2 909.58 448.104 910.099 435.335C909.519 434.947 908.925 434.584 908.324 434.213C908.078 446.847 902.874 458.888 893.818 467.783Z" fill="white"/>
<path d="M1050.86 275.203V225.035C1050.86 217.335 1047.77 209.95 1042.28 204.504C1036.78 199.059 1029.33 196 1021.56 196H914.315C910.468 196 906.658 196.751 903.104 198.21C899.549 199.669 896.319 201.808 893.599 204.504C890.878 207.2 888.72 210.401 887.247 213.924C885.775 217.447 885.017 221.222 885.017 225.035V258.353H883.133V270.092H885.017V282.614H883.133V300.615H885.017V308.441H883.133V326.442H885.017V500.256C885.017 504.069 885.775 507.845 887.247 511.368C888.72 514.891 890.878 518.091 893.598 520.788C896.319 523.484 899.549 525.622 903.103 527.082C906.658 528.541 910.468 529.292 914.315 529.292H1021.56C1025.41 529.292 1029.22 528.541 1032.77 527.082C1036.33 525.623 1039.56 523.484 1042.28 520.788C1045 518.091 1047.16 514.891 1048.63 511.368C1050.1 507.845 1050.86 504.07 1050.86 500.256V310.912H1052.71V275.203H1050.86Z" fill="#3F3D56"/>
<path d="M1022.74 203.554H1008.75C1009.39 205.118 1009.63 206.815 1009.46 208.496C1009.29 210.176 1008.7 211.789 1007.75 213.191C1006.8 214.593 1005.51 215.742 1004.01 216.536C1002.5 217.331 1000.83 217.746 999.121 217.746H937.681C935.976 217.746 934.298 217.331 932.793 216.536C931.289 215.742 930.005 214.593 929.054 213.191C928.103 211.789 927.515 210.176 927.341 208.496C927.167 206.815 927.413 205.118 928.056 203.554H914.981C909.178 203.554 903.613 205.838 899.51 209.905C895.407 213.971 893.102 219.487 893.102 225.237V500.055C893.102 502.902 893.667 505.722 894.767 508.352C895.867 510.983 897.478 513.373 899.51 515.387C901.542 517.4 903.954 518.998 906.608 520.087C909.263 521.177 912.108 521.738 914.981 521.738H1022.74C1028.55 521.738 1034.11 519.453 1038.22 515.387C1042.32 511.321 1044.62 505.805 1044.62 500.055V225.237C1044.62 222.39 1044.06 219.57 1042.96 216.939C1041.86 214.309 1040.25 211.918 1038.22 209.905C1036.18 207.891 1033.77 206.294 1031.12 205.205C1028.46 204.115 1025.62 203.554 1022.74 203.554Z" fill="white"/>
<path d="M1025.46 299.193H912.27C911.482 299.192 910.725 298.881 910.168 298.329C909.61 297.776 909.296 297.026 909.295 296.245V250.731C909.296 249.949 909.61 249.2 910.168 248.647C910.725 248.094 911.482 247.783 912.27 247.783H1025.46C1026.24 247.783 1027 248.094 1027.56 248.647C1028.12 249.2 1028.43 249.949 1028.43 250.731V296.245C1028.43 297.026 1028.12 297.776 1027.56 298.329C1027 298.881 1026.24 299.192 1025.46 299.193Z" fill="#6C63FF"/>
<path d="M1014.68 320.732H923.048C922.18 320.732 921.347 320.39 920.734 319.782C920.12 319.173 919.775 318.349 919.775 317.488C919.775 316.628 920.12 315.803 920.734 315.195C921.347 314.587 922.18 314.245 923.048 314.245H1014.68C1015.55 314.245 1016.38 314.587 1016.99 315.195C1017.61 315.803 1017.95 316.628 1017.95 317.488C1017.95 318.349 1017.61 319.173 1016.99 319.782C1016.38 320.39 1015.55 320.732 1014.68 320.732Z" fill="#6C63FF"/>
<path d="M1014.68 337.242H923.048C922.101 337.242 921.193 336.87 920.523 336.206C919.854 335.543 919.478 334.643 919.478 333.704C919.478 332.766 919.854 331.866 920.523 331.203C921.193 330.539 922.101 330.166 923.048 330.166H1014.68C1015.62 330.166 1016.53 330.539 1017.2 331.203C1017.87 331.866 1018.25 332.766 1018.25 333.704C1018.25 334.643 1017.87 335.543 1017.2 336.206C1016.53 336.87 1015.62 337.242 1014.68 337.242Z" fill="#E4E4E4"/>
<path d="M1014.68 353.458H923.048C922.101 353.458 921.193 353.085 920.523 352.422C919.854 351.758 919.478 350.859 919.478 349.92C919.478 348.982 919.854 348.082 920.523 347.418C921.193 346.755 922.101 346.382 923.048 346.382H1014.68C1015.62 346.382 1016.53 346.755 1017.2 347.418C1017.87 348.082 1018.25 348.982 1018.25 349.92C1018.25 350.859 1017.87 351.758 1017.2 352.422C1016.53 353.085 1015.62 353.458 1014.68 353.458Z" fill="#E4E4E4"/>
<path d="M1025.46 435.407H912.27C911.482 435.406 910.725 435.095 910.168 434.542C909.61 433.989 909.296 433.24 909.295 432.458V386.944C909.296 386.163 909.61 385.413 910.168 384.861C910.725 384.308 911.482 383.997 912.27 383.996H1025.46C1026.24 383.997 1027 384.308 1027.56 384.861C1028.12 385.413 1028.43 386.163 1028.43 386.944V432.458C1028.43 433.24 1028.12 433.989 1027.56 434.542C1027 435.095 1026.24 435.406 1025.46 435.407Z" fill="#E4E4E4"/>
<path d="M1014.68 457.24H923.048C922.101 457.24 921.193 456.867 920.523 456.204C919.854 455.54 919.478 454.64 919.478 453.702C919.478 452.764 919.854 451.864 920.523 451.2C921.193 450.537 922.101 450.164 923.048 450.164H1014.68C1015.62 450.164 1016.53 450.537 1017.2 451.2C1017.87 451.864 1018.25 452.764 1018.25 453.702C1018.25 454.64 1017.87 455.54 1017.2 456.204C1016.53 456.867 1015.62 457.24 1014.68 457.24Z" fill="#E4E4E4"/>
<path d="M1014.68 473.456H923.048C922.101 473.456 921.193 473.083 920.523 472.419C919.854 471.756 919.478 470.856 919.478 469.918C919.478 468.979 919.854 468.079 920.523 467.416C921.193 466.752 922.101 466.38 923.048 466.38H1014.68C1015.62 466.38 1016.53 466.752 1017.2 467.416C1017.87 468.079 1018.25 468.979 1018.25 469.918C1018.25 470.856 1017.87 471.756 1017.2 472.419C1016.53 473.083 1015.62 473.456 1014.68 473.456Z" fill="#E4E4E4"/>
<path d="M1014.68 489.672H923.048C922.101 489.672 921.193 489.299 920.523 488.635C919.854 487.972 919.478 487.072 919.478 486.134C919.478 485.195 919.854 484.295 920.523 483.632C921.193 482.968 922.101 482.596 923.048 482.596H1014.68C1015.62 482.596 1016.53 482.968 1017.2 483.632C1017.87 484.295 1018.25 485.195 1018.25 486.134C1018.25 487.072 1017.87 487.972 1017.2 488.635C1016.53 489.299 1015.62 489.672 1014.68 489.672Z" fill="#E4E4E4"/>
<path d="M1214.85 530.406H829.709C829.521 530.406 829.342 530.331 829.209 530.2C829.077 530.068 829.002 529.89 829.002 529.704C829.002 529.518 829.077 529.34 829.209 529.208C829.342 529.077 829.521 529.003 829.709 529.002H1214.85C1215.04 529.003 1215.22 529.077 1215.35 529.208C1215.48 529.34 1215.56 529.518 1215.56 529.704C1215.56 529.89 1215.48 530.068 1215.35 530.2C1215.22 530.331 1215.04 530.406 1214.85 530.406Z" fill="#3F3D56"/>
<path d="M972.879 208.695H956.814C956.498 208.695 956.196 208.57 955.973 208.349C955.749 208.128 955.624 207.828 955.624 207.515C955.624 207.202 955.749 206.902 955.973 206.681C956.196 206.46 956.498 206.336 956.814 206.336H972.879C973.195 206.336 973.497 206.46 973.721 206.681C973.944 206.902 974.069 207.202 974.069 207.515C974.069 207.828 973.944 208.128 973.721 208.349C973.497 208.57 973.195 208.695 972.879 208.695Z" fill="white"/>
<path d="M980.912 208.695C981.569 208.695 982.102 208.166 982.102 207.515C982.102 206.864 981.569 206.336 980.912 206.336C980.254 206.336 979.722 206.864 979.722 207.515C979.722 208.166 980.254 208.695 980.912 208.695Z" fill="white"/>
</g>
</g>
<g clip-path="url(#clip2_257_2)">
<path d="M392.106 532H168.032C162.721 531.994 157.629 529.725 153.874 525.692C150.118 521.659 148.006 516.191 148 510.487V161.513C148.006 155.809 150.118 150.341 153.874 146.308C157.629 142.275 162.721 140.006 168.032 140H392.106C397.417 140.006 402.509 142.275 406.264 146.308C410.02 150.341 412.132 155.809 412.138 161.513V510.487C412.132 516.191 410.02 521.659 406.264 525.692C402.509 529.725 397.417 531.994 392.106 532Z" fill="#3F3D56"/>
<path d="M392.501 518.275H167.638C166.001 518.273 164.431 517.573 163.273 516.33C162.116 515.087 161.465 513.401 161.463 511.643V160.357C161.465 158.599 162.116 156.913 163.273 155.67C164.431 154.427 166.001 153.728 167.638 153.726H392.501C394.138 153.728 395.708 154.427 396.865 155.67C398.023 156.913 398.674 158.599 398.676 160.357V511.643C398.674 513.401 398.023 515.087 396.865 516.33C395.708 517.573 394.138 518.273 392.501 518.275Z" fill="white"/>
<path d="M279.217 148.418C280.158 148.418 280.921 147.599 280.921 146.588C280.921 145.578 280.158 144.758 279.217 144.758C278.276 144.758 277.513 145.578 277.513 146.588C277.513 147.599 278.276 148.418 279.217 148.418Z" fill="white"/>
<path opacity="0.15" d="M374.636 307.036L373.903 308.101L392.44 322.809L393.172 321.744L374.636 307.036Z" fill="black"/>
<path d="M373.531 327.042L280.28 256.643L186.077 326.386L278.875 368.469L373.531 327.042Z" fill="white"/>
<path d="M186.436 326.322H186.504L225.017 343.982L277.711 368.146C277.917 368.239 278.138 368.288 278.361 368.289C278.585 368.29 278.806 368.244 279.013 368.153L333.378 343.932L372.837 326.35L372.897 326.322H372.964C373.587 326.322 374.184 326.588 374.624 327.061C375.065 327.534 375.312 328.175 375.313 328.844V438.368C375.312 439.036 375.065 439.677 374.624 440.15C374.184 440.623 373.587 440.889 372.964 440.889H186.436C185.814 440.889 185.217 440.623 184.777 440.15C184.336 439.677 184.089 439.036 184.088 438.368V328.844C184.089 328.175 184.336 327.534 184.777 327.061C185.217 326.588 185.814 326.322 186.436 326.322Z" fill="white"/>
<path d="M186.269 327.042C186.337 327.042 186.404 327.02 186.46 326.978L279.241 257.587C279.523 257.377 279.859 257.265 280.202 257.265C280.546 257.266 280.881 257.379 281.163 257.591L373.275 326.977C373.348 327.031 373.438 327.053 373.525 327.036C373.613 327.02 373.691 326.966 373.742 326.888C373.793 326.81 373.813 326.713 373.798 326.619C373.782 326.526 373.733 326.442 373.66 326.387L281.548 257.001C281.154 256.705 280.685 256.546 280.204 256.545C279.723 256.544 279.253 256.702 278.858 256.996L186.077 326.386C186.018 326.43 185.974 326.493 185.951 326.565C185.928 326.638 185.927 326.717 185.949 326.79C185.97 326.863 186.013 326.927 186.07 326.972C186.128 327.018 186.198 327.042 186.269 327.042Z" fill="#3F3D56"/>
<path d="M368.011 329.502L280.111 259.542L191.544 334.48L275.582 387.981L321.208 376.812L368.011 329.502Z" fill="#E6E6E6"/>
<path d="M317.356 421.026H360.781C361.319 421.026 361.835 420.797 362.215 420.389C362.596 419.981 362.81 419.428 362.811 418.851C362.812 418.273 362.599 417.719 362.219 417.31C361.84 416.901 361.325 416.67 360.787 416.669H317.356C316.819 416.668 316.303 416.897 315.922 417.305C315.542 417.713 315.328 418.267 315.327 418.844C315.326 419.422 315.539 419.976 315.918 420.385C316.298 420.794 316.813 421.025 317.35 421.026H317.356Z" fill="#6C63FF"/>
<path d="M345.201 411.659H360.781C361.319 411.659 361.835 411.43 362.215 411.022C362.596 410.614 362.81 410.061 362.811 409.483C362.812 408.906 362.599 408.352 362.219 407.943C361.84 407.534 361.325 407.303 360.787 407.301H345.201C344.664 407.301 344.148 407.53 343.767 407.938C343.387 408.346 343.173 408.9 343.172 409.477C343.171 410.054 343.384 410.609 343.763 411.018C344.143 411.427 344.658 411.657 345.195 411.659H345.201Z" fill="#6C63FF"/>
<path d="M278.875 368.468C279.205 368.469 279.532 368.4 279.838 368.266L334.048 344.11V268.497C334.048 267.829 333.8 267.188 333.36 266.715C332.92 266.242 332.323 265.976 331.7 265.975H227.701C227.078 265.976 226.481 266.242 226.041 266.715C225.601 267.188 225.353 267.829 225.352 268.497V344.163L225.454 344.209L277.883 368.254C278.197 368.396 278.535 368.469 278.875 368.468Z" fill="white"/>
<path d="M277.818 368.42L225.185 344.282V268.497C225.185 267.781 225.451 267.094 225.922 266.587C226.394 266.081 227.034 265.796 227.701 265.795H331.7C332.367 265.796 333.007 266.081 333.478 266.587C333.95 267.094 334.215 267.781 334.216 268.497V344.23L279.902 368.433C279.233 368.725 278.483 368.72 277.818 368.42ZM333.545 268.497C333.545 267.972 333.35 267.468 333.004 267.097C332.658 266.725 332.189 266.516 331.7 266.516H227.701C227.211 266.516 226.742 266.725 226.397 267.097C226.051 267.468 225.856 267.972 225.856 268.497V343.806L278.08 367.756C278.58 367.982 279.143 367.986 279.646 367.767L333.545 343.749L333.545 268.497Z" fill="#3F3D56"/>
<path d="M184.591 328.844V438.368C184.592 439.036 184.84 439.677 185.28 440.15C185.72 440.623 186.317 440.889 186.94 440.889H373.468C374.09 440.889 374.687 440.623 375.127 440.15C375.568 439.677 375.815 439.036 375.816 438.368V328.844C375.815 328.175 375.568 327.534 375.127 327.061C374.687 326.588 374.09 326.322 373.468 326.322H373.4L373.34 326.35L333.881 343.932L279.516 368.153C279.309 368.244 279.088 368.29 278.864 368.289C278.641 368.288 278.42 368.239 278.214 368.146L225.52 343.982L187.007 326.322H186.94C186.317 326.322 185.72 326.588 185.28 327.061C184.84 327.534 184.592 328.175 184.591 328.844ZM185.262 328.844C185.263 328.378 185.431 327.932 185.731 327.596C186.031 327.261 186.44 327.062 186.873 327.042L225.52 344.764L277.949 368.809C278.532 369.072 279.188 369.076 279.774 368.82L333.881 344.71L373.531 327.042C373.965 327.061 374.375 327.259 374.675 327.594C374.976 327.93 375.144 328.378 375.145 328.844V438.368C375.145 438.845 374.968 439.303 374.654 439.641C374.339 439.979 373.912 440.169 373.468 440.169H186.94C186.495 440.169 186.068 439.979 185.754 439.641C185.439 439.303 185.262 438.845 185.262 438.368V328.844Z" fill="#3F3D56"/>
<path d="M236.805 294.239H273.708C274.42 294.239 275.102 293.936 275.606 293.395C276.109 292.855 276.392 292.122 276.392 291.357C276.392 290.593 276.109 289.86 275.606 289.319C275.102 288.779 274.42 288.475 273.708 288.475H236.805C236.093 288.475 235.41 288.779 234.907 289.319C234.404 289.86 234.121 290.593 234.121 291.357C234.121 292.122 234.404 292.855 234.907 293.395C235.41 293.936 236.093 294.239 236.805 294.239Z" fill="#6C63FF"/>
<path d="M236.827 281.99H254.608C255.32 281.99 256.002 281.686 256.505 281.146C257.009 280.605 257.292 279.872 257.292 279.108C257.292 278.343 257.009 277.61 256.505 277.07C256.002 276.529 255.32 276.226 254.608 276.226H236.827C236.115 276.226 235.433 276.529 234.929 277.07C234.426 277.61 234.143 278.343 234.143 279.108C234.143 279.872 234.426 280.605 234.929 281.146C235.433 281.686 236.115 281.99 236.827 281.99Z" fill="#6C63FF"/>
<path d="M252.1 323.062H308.461C309.173 323.062 309.855 322.758 310.359 322.217C310.862 321.677 311.145 320.944 311.145 320.179C311.145 319.415 310.862 318.682 310.359 318.141C309.855 317.601 309.173 317.297 308.461 317.297H252.1C251.388 317.297 250.705 317.601 250.202 318.141C249.699 318.682 249.416 319.415 249.416 320.179C249.416 320.944 249.699 321.677 250.202 322.217C250.705 322.758 251.388 323.062 252.1 323.062Z" fill="#CCCCCC"/>
<path d="M252.1 336.392H308.461C309.173 336.392 309.855 336.088 310.359 335.548C310.862 335.007 311.145 334.274 311.145 333.51C311.145 332.745 310.862 332.012 310.359 331.472C309.855 330.931 309.173 330.627 308.461 330.627H252.1C251.388 330.627 250.705 330.931 250.202 331.472C249.699 332.012 249.416 332.745 249.416 333.51C249.416 334.274 249.699 335.007 250.202 335.548C250.705 336.088 251.388 336.392 252.1 336.392Z" fill="#CCCCCC"/>
<path opacity="0.1" d="M382.892 281.169L394.086 280.474L438.813 339.669L423.012 337.074L413.653 335.555C411.904 333.947 410.327 332.133 408.952 330.149L398.553 326.834L393.768 323.037C394.068 324.271 382.892 281.169 382.892 281.169Z" fill="black"/>
<path opacity="0.15" d="M318.172 287.323C318.214 287.318 322.474 286.748 324.292 283.399C325.516 281.142 325.393 278.103 323.926 274.367L325.062 273.852C326.69 277.998 326.788 281.437 325.352 284.074C323.216 287.997 318.511 288.615 318.312 288.639L318.172 287.323Z" fill="black"/>
</g>
<defs>
<clipPath id="clip0_257_2">
<rect width="1196" height="547" fill="white"/>
</clipPath>
<clipPath id="clip1_257_2">
<rect width="386.558" height="335.062" fill="white" transform="translate(829 196)"/>
</clipPath>
<clipPath id="clip2_257_2">
<rect width="367" height="392" fill="white" transform="translate(148 140)"/>
</clipPath>
</defs>
</svg>
